# xmcd
#
# Track frame offsets:
#	150
#	23842
#	48145
#	62057
#	89477
#	110917
#	127035
#	143132
#	161492
#	182959
#	194067
#	206197
#	216837
#	236717
#
# Disc length: 3587 seconds
#
# Revision: 2
# Processed by: cddbd v1.5.1PL0 Copyright (c) Steve Scherf et al.
# Submitted via: audiograbber 1.81.02
#
DISCID=dc0e010e
DTITLE=Various Artist - Blues Guitar Heaven
DYEAR=1998
DGENRE=Blues
TTITLE0=King, B.B. - You've Done Lost Your Good Thing
TTITLE1=Rush, Otis - I Can't Quit You Baby
TTITLE2=Clapton, Eric - Draggin' My Tail
TTITLE3=Waters, Muddy - County Jail
TTITLE4=Walker, T-Bone - Stormy Monday Blues
TTITLE5=King, B.B. - It's My Own Fault
TTITLE6=Bloomfield, Mike - WDIA
TTITLE7=Shines, Johnny - I Do Believe
TTITLE8=Wells, Junior With Buddy Guy - Early In The Morning
TTITLE9=Clapton, Eric - Snake Drive
TTITLE10=Johnson, Lonnie - Slow and Easy
TTITLE11=Chicago Blues Band Featuring John Lee Hooker - Dimples (I Love The Way
TTITLE11=You Walk)
TTITLE12=Johnson, Jimmy - Strange How I Miss You
TTITLE13=Levenson, Barry - Cobra Days - Blue Tears
EXTD=
EXTT0=
EXTT1=
EXTT2=
EXTT3=
EXTT4=
EXTT5=
EXTT6=
EXTT7=
EXTT8=
EXTT9=
EXTT10=
EXTT11=
EXTT12=
EXTT13=
PLAYORDER=
